<svg xmlns="http://www.w3.org/2000/svg" version="1.2" x="0" y="0" width="201" height="110" viewBox="0 0 200.425 108.289" id="svg9200"><style>text{font-family:&apos;helvetica&apos;,&apos;sans-serif&apos;}</style><g id="g8623" transform="translate(23.594 -.7)"><g transform="translate(102.348 25.908)" id="g8621"><g id="schematic"><path stroke-width=".7" stroke-linecap="round" fill="none" stroke="#000" id="line8584" d="M19.8 11.159h1.8"/><path stroke-width=".7" stroke-linecap="round" fill="none" stroke="#000" id="line8586" d="m7.2 11.159 12.6-3.6"/><circle cy="11.159" r=".36" stroke-width=".7" cx="7.2" fill="none" stroke="#000" id="circle8588"/><circle cy="11.159" r=".36" stroke-width=".7" cx="21.6" fill="none" stroke="#000" id="circle8590"/><g transform="translate(2.761 2.718)" id="g8594"><text font-size="2" fill="#787878" id="text8592">1</text></g><g transform="translate(24.604 2.718)" id="g8598"><text font-size="2" fill="#787878" id="text8596">2</text></g><g transform="translate(2.761 16.843)" id="g8602"><text font-size="2" fill="#787878" id="text8600">1</text></g><g transform="translate(24.604 16.843)" id="g8606"><text font-size="2" fill="#787878" id="text8604">2</text></g><path stroke-width=".7" stroke-linecap="round" fill="none" stroke="#000" id="line8608" d="M21.6 3.96v14.399"/><path stroke-width=".7" stroke-linecap="round" fill="none" stroke="#000" id="line8610" d="M7.2 3.96v14.399"/><path stroke-width=".7" stroke-linecap="round" id="connector3pin" fill="none" stroke="#555" d="M.322 18.359H7.2"/><path stroke-width=".7" stroke-linecap="round" id="connector2pin" fill="none" stroke="#555" d="M.322 3.96H7.2"/><path stroke-width=".7" stroke-linecap="round" id="connector1pin" fill="none" stroke="#555" d="M28.451 18.359H21.6"/><path stroke-width=".7" stroke-linecap="round" id="connector0pin" fill="none" stroke="#555" d="M28.451 3.96H21.6"/></g></g></g><g id="g8652" transform="translate(23.594 -.7)"><g transform="translate(123.801 81.556)" id="g8650"><g transform="scale(-1)" id="g8648"><g id="g8646"><path stroke-width=".72" stroke-linecap="round" stroke-dashoffset="1.368" stroke-dasharray="0.720001, 1.44" id="line7" class="other" stroke="#000" d="m7.55 8.506 7.2-3.6"/><path stroke-width=".36" stroke-linecap="round" id="line9" class="other" stroke="#000" d="M14.75 15.706h1.8"/><path stroke-width=".432" stroke-linecap="round" id="line11" class="other" stroke="#000" d="M14.75 1.306h1.8"/><circle cy="1.306" r="1.018" stroke-width=".576" cx="14.75" id="circle13" fill-opacity=".982" fill="#000" class="other" stroke="#000"/><circle cy="15.706" r="1.018" stroke-width=".576" cx="14.75" id="circle15" fill-opacity=".984" fill="#000" class="other" stroke="#000"/><circle cy="8.506" r="1.018" stroke-width=".576" cx="7.55" id="circle17" fill="none" class="other" stroke="#000"/><path stroke-width=".7" stroke-linecap="round" id="line8631" class="pin" stroke="#787878" d="M.35 8.506h7.2"/><text font-size="2.5" style="text-anchor:middle" y="7.456" id="text21" x="3.95" fill="#8c8c8c" class="text">2</text><path stroke-width=".7" stroke-linecap="round" id="line8636" class="pin" stroke="#787878" d="M21.95 15.706h-7.2"/><text font-size="2.5" style="text-anchor:middle" y="14.656" id="text25" x="18.35" fill="#8c8c8c" class="text">3</text><path stroke-width=".7" stroke-linecap="round" id="line8641" class="pin" stroke="#787878" d="M21.95 1.306h-7.2"/><text font-size="2.5" style="text-anchor:middle" y="4.241" id="text29" x="18.35" fill="#8c8c8c" class="text">1</text></g></g></g></g><g id="g8690" transform="translate(23.594 -.7)"><g transform="translate(97.747 .7)" id="g8688"><g transform="rotate(90)" id="g8686"><g id="g8684"><path stroke-width=".432" stroke-linecap="round" class="other" stroke="#000" id="line8654" d="M7.55 3.096 8.63.216"/><path stroke-width=".432" stroke-linecap="round" class="other" stroke="#000" id="line8656" d="m8.63.216 1.8 5.76"/><path stroke-width=".432" stroke-linecap="round" class="other" stroke="#000" id="line8658" d="m10.43 5.976 1.8-5.76"/><path stroke-width=".432" stroke-linecap="round" class="other" stroke="#000" id="line8660" d="m12.23.216 1.8 5.76"/><path stroke-width=".432" stroke-linecap="round" class="other" stroke="#000" id="line8662" d="m14.03 5.976 1.8-5.76"/><path stroke-width=".432" stroke-linecap="round" class="other" stroke="#000" id="line8664" d="m15.83.216 1.8 5.76"/><path stroke-width=".432" stroke-linecap="round" class="other" stroke="#000" id="line8666" d="m17.63 5.976 1.8-5.76"/><path stroke-width=".432" stroke-linecap="round" class="other" stroke="#000" id="line8668" d="m19.43.216 1.8 5.76"/><path stroke-width=".432" stroke-linecap="round" class="other" stroke="#000" id="line8670" d="m21.23 5.976.72-2.88"/><path stroke-width=".7" stroke-linecap="round" id="line8672" class="pin" stroke="#787878" d="M29.15 3.096h-7.2"/><text font-size="2.5" text-anchor="middle" stroke-width="0" y="2.046" x="25.55" fill="#8c8c8c" class="text" stroke="none" id="text8676">2</text><path stroke-width=".7" stroke-linecap="round" id="line8678" class="pin" stroke="#787878" d="M.35 3.096h7.2"/><text font-size="2.5" text-anchor="middle" stroke-width="0" y="2.046" x="3.95" fill="#8c8c8c" class="text" stroke="none" id="text8682">1</text></g></g></g></g><g id="g8754" transform="translate(23.594 -.7)"><g transform="translate(15.801 80.6)" id="g8752"><g transform="scale(-1)" id="g8750"><g id="g8748"><path stroke-width=".432" stroke-linecap="round" class="other" stroke="#000" id="line8692" d="m14.75 7.55-5.76 2.88"/><path stroke-width=".432" stroke-linecap="round" class="other" stroke="#000" id="line8694" d="m8.99 19.07 5.76 2.88"/><path stroke-width=".432" stroke-linecap="round" class="other" stroke="#000" id="line8696" d="m11.15 7.55 1.44 2.88"/><path stroke-width=".432" stroke-linecap="round" class="other" stroke="#000" id="line8698" d="M12.59 10.43h-3.6"/><path stroke-width=".432" stroke-linecap="round" class="other" stroke="#000" id="line8700" d="m8.99 10.43 2.16-2.88"/><path stroke-width=".576" stroke-linecap="round" class="other" stroke="#000" id="line8702" d="m11.006 8.198 1.008 1.944"/><path stroke-width=".576" stroke-linecap="round" class="other" stroke="#000" id="line8704" d="m10.79 8.63.72 1.512"/><path stroke-width=".576" stroke-linecap="round" class="other" stroke="#000" id="line8706" d="m10.43 8.99.576 1.152"/><path stroke-width=".576" stroke-linecap="round" class="other" stroke="#000" id="line8708" d="m10.214 9.422.288.648"/><path stroke-width=".576" stroke-linecap="round" class="other" stroke="#000" id="line8710" d="m9.854 9.71.216.432"/><path stroke-width="0" stroke-linecap="round" fill="#000" class="other" stroke="none" id="rect8712" d="M6.83 7.55h2.16v14.4H6.83z"/><path stroke-width=".7" stroke-linecap="round" id="line8714" class="pin" stroke="#787878" d="M.35 14.75h7.2"/><text font-size="2.5" text-anchor="middle" stroke-width="0" y="13.7" x="3.95" fill="#8c8c8c" class="text" stroke="none" id="text8718">1</text><path stroke-width=".7" stroke-linecap="round" id="line8720" class="pin" stroke="#787878" d="M14.75 29.15v-7.2"/><g transform="translate(13.7 25.55)" id="g8732"><g id="g8730"><g transform="rotate(-90)" id="g8728"><g id="g8726"><text font-size="2.5" text-anchor="middle" stroke-width="0" y="0" x="0" fill="#8c8c8c" class="text" stroke="none" id="text8724">3</text></g></g></g></g><path stroke-width=".7" stroke-linecap="round" id="line8734" class="pin" stroke="#787878" d="M14.75.35v7.2"/><g transform="translate(13.7 3.95)" id="g8746"><g id="g8744"><g transform="rotate(-90)" id="g8742"><g id="g8740"><text font-size="2.5" text-anchor="middle" stroke-width="0" y="0" x="0" fill="#8c8c8c" class="text" stroke="none" id="text8738">2</text></g></g></g></g></g></g></g></g><g id="g8836" transform="translate(23.594 -.7)"><g transform="translate(15.235 97.35)" id="g8834"><g transform="rotate(-90)" id="g8832"><g id="g8830"><g id="g8758"><path d="M13.5 14.966H9.9a.35.35 0 1 1 0-.7h3.6a.35.35 0 1 1 0 .7z" id="path8756"/></g><g id="g8762"><path d="M9.9 14.966H6.3a.35.35 0 1 1 0-.7h3.6a.35.35 0 1 1 0 .7z" id="path8760"/></g><g id="g8768"><path fill="#fff" id="polygon8764" d="m9.9 14.616-3.6-7.2h7.2z"/><path d="M9.9 15.398 5.734 7.066h8.333zM6.866 7.766 9.9 13.834l3.034-6.068z" id="path8766"/></g><g id="g8772"><path d="M9.9 14.841a.225.225 0 0 1-.225-.225v-7.2a.225.225 0 0 1 .45 0v7.2a.226.226 0 0 1-.225.225z" id="path8770"/></g><g id="g8776"><path d="M1.8 12.141a.225.225 0 0 1-.159-.383l2.34-2.341a.225.225 0 1 1 .318.318l-2.34 2.341a.222.222 0 0 1-.159.065z" id="path8774"/></g><g id="g8780"><path d="M2.16 15.381a.225.225 0 0 1-.159-.383l2.34-2.34a.225.225 0 1 1 .318.318l-2.34 2.34a.225.225 0 0 1-.159.065z" id="path8778"/></g><g id="g8784"><path d="M9.9 22.166a.35.35 0 0 1-.35-.35v-7.2a.35.35 0 1 1 .7 0v7.2a.35.35 0 0 1-.35.35z" fill="#787878" id="path8782"/></g><g id="g8788"><path fill="none" id="rect8786" d="M9.9 21.816h.001v.001H9.9z"/></g><g transform="translate(3.429 6.426)" id="g8800"><g id="g8798"><g transform="rotate(-90)" id="g8796"><g id="g8794"><g id="g8792"><path d="M-11.647 5.54h-.891v-.152l.342-.372c.049-.053.093-.101.131-.145.038-.044.071-.086.099-.128a.69.69 0 0 0 .062-.125.412.412 0 0 0 .004-.24.228.228 0 0 0-.047-.075.22.22 0 0 0-.073-.046.258.258 0 0 0-.094-.016.363.363 0 0 0-.167.038.629.629 0 0 0-.143.096l-.1-.116a.671.671 0 0 1 .29-.155.59.59 0 0 1 .29.013.359.359 0 0 1 .129.076.325.325 0 0 1 .082.119.485.485 0 0 1 .002.318.765.765 0 0 1-.07.148 1.227 1.227 0 0 1-.109.146c-.041.049-.087.1-.136.152l-.274.294v.008h.673z" fill="#787878" id="path8790"/></g></g></g></g></g><g id="g8804"><path d="M9.9 7.766a.35.35 0 0 1-.35-.35v-7.2a.35.35 0 1 1 .7 0v7.2a.351.351 0 0 1-.35.35z" fill="#787878" id="path8802"/></g><g id="g8808"><path fill="none" id="polygon8806" d="M9.901.216H9.9z"/></g><g transform="translate(3.429 1.346)" id="g8820"><g id="g8818"><g transform="rotate(-90)" id="g8816"><g id="g8814"><g id="g8812"><path d="M-2.616 5.54h-.172v-.982l.002-.095.003-.092.002-.076-.029.03a.195.195 0 0 1-.026.024l-.028.025-.035.03-.145.118-.094-.12.374-.292h.146v1.43z" fill="#787878" id="path8810"/></g></g></g></g></g><g id="g8824"><path d="m.18 13.536 1.08-2.521 1.44 1.438z" id="path8822"/></g><g id="g8828"><path d="m.54 16.776 1.08-2.521 1.438 1.438z" id="path8826"/></g></g></g></g></g><g id="g8882" transform="translate(23.594 -.7)"><g transform="translate(51.09 58.3)" id="g8880"><g id="g8878"><path stroke-width=".72" stroke-linecap="round" class="other" stroke="#000" id="line8838" d="M.36 7.55h14.4"/><path stroke-width=".432" stroke-linecap="round" class="other" stroke="#000" id="line8840" d="M7.56 10.43v4.32"/><path stroke-width=".72" d="M7.56 10.385a11.492 11.492 0 0 1 7.056 2.421" fill="none" class="other" stroke="#000" id="path8842"/><path stroke-width=".72" d="M.567 12.795A11.52 11.52 0 0 1 7.56 10.43" fill="none" class="other" stroke="#000" id="path8844"/><path stroke-width="0" stroke-linecap="round" fill="#000" class="other" stroke="none" id="rect8846" d="M1.174 5.296h2.52v.36h-2.52z"/><path stroke-width="0" stroke-linecap="round" fill="#000" class="other" stroke="none" id="rect8848" d="M2.254 4.216h.36v2.52h-.36z"/><path stroke-width=".7" stroke-linecap="round" id="line8850" class="pin" stroke="#787878" d="M7.56.35v7.2"/><g transform="translate(6.51 3.95)" id="g8862"><g id="g8860"><g transform="rotate(-90)" id="g8858"><g id="g8856"><text font-size="2.5" text-anchor="middle" stroke-width="0" y="0" x="0" fill="#8c8c8c" class="text" stroke="none" id="text8854">2</text></g></g></g></g><path stroke-width=".7" stroke-linecap="round" id="line8864" class="pin" stroke="#787878" d="M7.56 21.95v-7.2"/><g transform="translate(6.51 18.35)" id="g8876"><g id="g8874"><g transform="rotate(-90)" id="g8872"><g id="g8870"><text font-size="2.5" text-anchor="middle" stroke-width="0" y="0" x="0" fill="#8c8c8c" class="text" stroke="none" id="text8868">1</text></g></g></g></g></g></g></g><g id="g8918" transform="translate(23.594 -.7)"><g transform="translate(37.05 1.05)" id="g8916"><g id="g8914"><path stroke-width=".7" stroke-linecap="round" fill="none" stroke="#000" id="polyline8884" d="M4.125 17.557 21.6 27.474v10.269"/><path id="polygon8886" d="M-.022 15.188 5.819 16.8 4.23 19.505z"/><path stroke-width=".7" stroke-linecap="round" fill="none" stroke="#000" id="polyline8888" d="M14.401 36v-1.441l-2.88-2.159 6.48-3.601-6.48-3.599 6.48-3.6-6.48-3.6 6.48-3.6-6.48-3.6 2.88-2.16V7.2"/><path stroke-width=".7" stroke-linecap="round" id="line8892" fill="none" stroke="#787878" d="M21.621 42.85V36"/><path stroke-width=".7" stroke-linecap="round" id="line8894" fill="none" stroke="#787878" d="M14.4 42.85V36"/><g transform="translate(11.521 40)" id="g8900"><text font-size="2" fill="#787878" id="text8898">1</text></g><g transform="translate(19.125 40)" id="g8904"><text font-size="2" fill="#787878" id="text8902">3</text></g><path stroke-width=".7" stroke-linecap="round" id="line8906" fill="none" stroke="#787878" d="M14.4.35v7.2"/><g transform="translate(11.521 4.975)" id="g8912"><text font-size="2" fill="#787878" id="text8910">2</text></g></g></g></g><g id="g8948" transform="translate(23.594 -.7)"><g transform="translate(163.627 51.1)" id="g8946"><g transform="rotate(90)" id="g8944"><g id="g8942"><path stroke-width="1.152" stroke-linecap="round" class="other" stroke="#000" id="line8920" d="M11.15.576v21.6"/><path stroke-width="1.152" stroke-linecap="round" class="other" stroke="#000" id="line8922" d="M14.75 7.776v7.2"/><path stroke-width="1.152" stroke-linecap="round" class="other" stroke="#000" id="line8924" d="M18.35.576v21.6"/><path stroke-width="1.152" stroke-linecap="round" class="other" stroke="#000" id="line8926" d="M21.95 7.776v7.2"/><path stroke-width=".432" stroke-linecap="round" class="other" stroke="#000" id="line8928" d="M7.55 11.376h2.88"/><path stroke-width=".7" stroke-linecap="round" id="line8930" class="pin" stroke="#787878" d="M29.15 11.376h-7.2"/><text font-size="2.5" text-anchor="middle" stroke-width="0" y="10.326" x="25.55" fill="#8c8c8c" class="text" stroke="none" id="text8934">1</text><path stroke-width=".7" stroke-linecap="round" id="line8936" class="pin" stroke="#787878" d="M.35 11.376h7.2"/><text font-size="2.5" text-anchor="middle" stroke-width="0" y="10.326" x="3.95" fill="#8c8c8c" class="text" stroke="none" id="text8940">2</text></g></g></g></g><g id="g8952" transform="translate(23.594 -.7)"><path stroke-linecap="round" stroke="#25cc35" stroke-width=".4" id="line8950" d="m51.449 43.738 7.234-.015"/></g><g id="g8956" transform="translate(23.594 -.7)"><path stroke-linecap="round" stroke="#404040" stroke-width=".7" id="line8954" d="m58.665 87.464-21.614-.014"/></g><g id="g8960" transform="translate(23.594 -.7)"><path stroke-linecap="round" stroke="#404040" stroke-width=".7" id="line8958" d="m58.651 80.25.014 7.214"/></g><circle fill="#000" cx="82.244" cy="79.55" r="1.44" stroke-width="0" stroke="none" id="circle8962"/><g id="g8966" transform="translate(23.594 -.7)"><path stroke-linecap="round" stroke="#404040" stroke-width=".7" id="line8964" d="M94.661 80.147V44.211"/></g><g id="g8970" transform="translate(23.594 -.7)"><path stroke-linecap="round" stroke="#404040" stroke-width=".7" id="line8968" d="m101.851 80.25-7.19-.103"/></g><g id="g8974" transform="translate(23.594 -.7)"><path stroke-linecap="round" stroke="#404040" stroke-width=".7" id="line8972" d="m94.661 44.211 8.105.071"/></g><circle fill="#000" cx="126.36" cy="43.582" r="1.44" stroke-width="0" stroke="none" id="circle8976"/><g id="g8980" transform="translate(23.594 -.7)"><path stroke-linecap="round" stroke="#404040" stroke-width=".7" id="line8978" d="m94.661 44.211 8.105.071"/></g><circle fill="#000" cx="126.36" cy="43.582" r="1.44" stroke-width="0" stroke="none" id="circle8982"/><g id="g8986" transform="translate(23.594 -.7)"><path stroke-linecap="round" stroke="#404040" stroke-width=".7" id="line8984" d="M94.661 51.35v-7.139"/></g><g id="g8990" transform="translate(23.594 -.7)"><path stroke-linecap="round" stroke="#404040" stroke-width=".7" id="line8988" d="M108.941 51.35h-14.28"/></g><g id="g8994" transform="translate(23.594 -.7)"><path stroke-linecap="round" stroke="#404040" stroke-width=".7" id="line8992" d="M123.458 51.35h-14.517"/></g><g id="g8998" transform="translate(23.594 -.7)"><path stroke-linecap="round" stroke="#404040" stroke-width=".7" id="line8996" d="m123.451 73.05.007-21.7"/></g><g id="g9002" transform="translate(23.594 -.7)"><path stroke-linecap="round" stroke="#404040" stroke-width=".7" id="line9000" d="m1.061 87.464-.01-7.214"/></g><g id="g9006" transform="translate(23.594 -.7)"><path stroke-linecap="round" stroke="#404040" stroke-width=".7" id="line9004" d="m15.45 87.45-14.389.014"/></g><g id="g9010" transform="translate(23.594 -.7)"><path stroke-linecap="round" stroke="#404040" stroke-width=".7" id="line9008" d="M94.651 1.05h-43.2"/></g><g id="g9014" transform="translate(23.594 -.7)"><path stroke-linecap="round" stroke="#404040" stroke-width=".7" id="line9012" d="m58.651 58.65.014-.073"/></g><g id="g9018" transform="translate(23.594 -.7)"><path stroke-linecap="round" stroke="#404040" stroke-width=".7" id="line9016" d="M58.665 58.577V44.219"/></g><g id="g9022" transform="translate(23.594 -.7)"><path stroke-linecap="round" stroke="#404040" stroke-width=".7" id="line9020" d="m58.665 44.219.018-.496"/></g><g id="g9026" transform="translate(23.594 -.7)"><path stroke-linecap="round" stroke="#404040" stroke-width=".7" id="line9024" d="m1.051 51.45.01-7.231"/></g><g id="g9030" transform="translate(23.594 -.7)"><path stroke-linecap="round" stroke="#404040" stroke-width=".7" id="line9028" d="M1.061 44.219h0"/></g><g id="g9034" transform="translate(23.594 -.7)"><path stroke-linecap="round" stroke="#404040" stroke-width=".7" id="line9032" d="M1.061 44.219h0"/></g><g id="g9038" transform="translate(23.594 -.7)"><path stroke-linecap="round" stroke="#404040" stroke-width=".7" id="line9036" d="m1.061 44.219 57.664-.008"/></g><g id="g9042" transform="translate(23.594 -.7)"><path stroke-linecap="round" stroke="#404040" stroke-width=".7" id="line9040" d="m58.725 44.211-7.276-.473"/></g><g id="g9046" transform="translate(23.594 -.7)"><path stroke-linecap="round" stroke="#404040" stroke-width=".7" id="line9044" d="m101.851 65.85-7.19.018"/></g><g id="g9050" transform="translate(23.594 -.7)"><path stroke-linecap="round" stroke="#404040" stroke-width=".7" id="line9048" d="M94.661 65.868V44.211"/></g><g id="g9054" transform="translate(23.594 -.7)"><path stroke-linecap="round" stroke="#404040" stroke-width=".7" id="line9052" d="m94.661 44.211 8.105.071"/></g><circle fill="#000" cx="126.36" cy="43.582" r="1.44" stroke-width="0" stroke="none" id="circle9056"/><g id="g9060" transform="translate(23.594 -.7)"><path stroke-linecap="round" stroke="#404040" stroke-width=".7" id="line9058" d="m94.661 29.932 8.105-.063"/></g><g id="g9064" transform="translate(23.594 -.7)"><path stroke-linecap="round" stroke="#404040" stroke-width=".7" id="line9062" d="m94.651 29.85.01.082"/></g><g id="g9068" transform="translate(23.594 -.7)"><path stroke-linecap="round" stroke="#404040" stroke-width=".7" id="line9066" d="m152.492 43.973-.241 7.477"/></g><g id="g9072" transform="translate(23.594 -.7)"><path stroke-linecap="round" stroke="#404040" stroke-width=".7" id="line9070" d="m130.651 44.25 21.841-.277"/></g><circle fill="#000" cx="176.086" cy="43.273" r="1.44" stroke-width="0" stroke="none" id="circle9074"/><g id="g9078" transform="translate(23.594 -.7)"><path stroke-linecap="round" stroke="#404040" stroke-width=".7" id="line9076" d="M58.665 87.464h93.67"/></g><g id="g9082" transform="translate(23.594 -.7)"><path stroke-linecap="round" stroke="#404040" stroke-width=".7" id="line9080" d="m152.335 87.464-.084-7.214"/></g><g id="g9086" transform="translate(23.594 -.7)"><path stroke-linecap="round" stroke="#404040" stroke-width=".7" id="line9084" d="m58.651 80.25.014 7.214"/></g><circle fill="#000" cx="82.244" cy="79.55" r="1.44" stroke-width="0" stroke="none" id="circle9088"/><g id="g9092" transform="translate(23.594 -.7)"><path stroke-linecap="round" stroke="#404040" stroke-width=".7" id="line9090" d="m152.254 29.932-21.65-.065"/></g><g id="g9096" transform="translate(23.594 -.7)"><path stroke-linecap="round" stroke="#404040" stroke-width=".7" id="line9094" d="m152.492 43.973-.238-14.041"/></g><g id="partLabel" transform="translate(-12.139 6.585)"><g transform="translate(109.401 1.154)" id="g9103"><g font-size="5" font-style="normal" font-weight="normal" fill="#000" id="schematicLabel" fill-opacity="1" stroke="none"><text x="0" y="3.75" id="text9098">R1</text><text x="0" y="8.75" id="text9100">10kΩ</text></g></g></g><g id="g9112" transform="translate(10.237 10.054)"><g transform="translate(127.679 5.39)" id="g9110"><g font-size="5" font-style="normal" font-weight="normal" fill="#000" id="g9108" fill-opacity="1" stroke="none"><text x="6.418" y="2.015" id="text9106"><tspan id="tspan10051" x="6.418" y="2.015">Optional toggle button</tspan><tspan id="tspan10053" x="6.418" y="8.265">and switch</tspan></text></g></g></g><g id="g9122" transform="translate(23.594 -.7)"><g transform="translate(16.623 14.977)" id="g9120"><g font-size="5" font-style="normal" font-weight="normal" fill="#000" id="g9118" fill-opacity="1" stroke="none"><text x="0" y="3.75" id="text9114">R2</text><text x="0" y="8.75" id="text9116">10kΩ</text></g></g></g><g id="g9132" transform="translate(-4.68 8.84)"><g transform="translate(66.21 47.1)" id="g9130"><g font-size="5" font-style="normal" font-weight="normal" fill="#000" id="g9128" fill-opacity="1" stroke="none"><text x="0" y="3.75" id="text9124">C1</text><text x="0" y="8.75" id="text9126">1µF</text></g></g></g><g id="g9142" transform="translate(23.594 -.7)"><g transform="translate(5.96 99.233)" id="g9140"><g font-size="5" font-style="normal" font-weight="normal" fill="#000" id="g9138" fill-opacity="1" stroke="none"><text x="0" y="3.75" id="text9134">LED1</text><text x="0" y="8.75" id="text9136">Red (633nm)</text></g></g></g><g id="g9166" transform="translate(23.594 -.7)"><g transform="translate(174.827 80.6)" id="g9164"><g transform="rotate(90)" id="g9162"><g font-size="5" font-style="normal" font-weight="normal" fill="#000" id="g9160" fill-opacity="1" stroke="none"><text x="0" y="3.75" id="text9156">VCC1</text><text x="0" y="8.75" id="text9158">9V</text></g></g></g></g><g id="g9174" transform="translate(24.634 8.32)"><g transform="translate(15.801 45.5)" id="g9172"><g font-size="5" font-style="normal" font-weight="normal" fill="#000" id="g9170" fill-opacity="1" stroke="none" transform="translate(-7.459 -2.081)"><text x="-33.304" y="-.76" id="text9168"><tspan id="tspan10055" x="-33.304" y="-.76">NPN</tspan><tspan id="tspan10057" x="-33.304" y="5.49">SS9018</tspan></text></g></g></g><path style="opacity:.678457;fill:none;fill-rule:evenodd;stroke:#000;stroke-width:.225;stroke-miterlimit:4;stroke-dasharray:.225,.225;stroke-dashoffset:0;stroke-opacity:1" id="rect9226" d="M107.901 26.366h52.558v57.762h-52.558z"/></svg>